<svg width="586" height="140" viewBox="0 0 586 140" fill="none" xmlns="http://www.w3.org/2000/svg">
<path d="M533.156 7.52732V42.2666C533.156 50.9677 526.398 58.3904 517.697 58.7295C508.553 59.0687 501 51.7373 501 42.671V7.52732C501 5.32269 499.212 3.52246 496.995 3.52246H452.211C450.006 3.52246 448.206 5.30965 448.206 7.52732V69.8179C448.206 107.727 478.484 139.192 516.393 139.557C554.68 139.923 585.937 108.888 585.937 70.6919V7.52732C585.937 5.32269 584.149 3.52246 581.932 3.52246H537.148C534.943 3.52246 533.143 5.30965 533.143 7.52732H533.156ZM517.084 76.4579C534.565 76.4579 548.993 63.1127 550.702 46.0627V56.6815C550.702 75.2186 535.621 90.2988 517.084 90.2988C498.547 90.2988 483.467 75.2186 483.467 56.6815V46.0627C485.176 63.0997 499.604 76.4579 517.084 76.4579ZM517.084 121.855C488.881 121.855 465.934 98.9086 465.934 70.705V60.6863C467.982 87.1288 490.133 108.014 517.084 108.014C544.036 108.014 566.199 87.1158 568.234 60.6863V70.705C568.234 98.9086 545.288 121.855 517.084 121.855Z" fill="#231F20"/>
<path d="M137.9 69.622C137.9 60.7513 133.387 52.9503 126.538 48.3584C125.299 47.5235 124.686 45.9972 125.012 44.5362C126.929 36.2264 124.646 27.147 118.176 20.6766C111.901 14.4018 103.187 12.0798 95.0992 13.6713C93.612 13.9714 92.0988 13.28 91.29 11.9885C86.7764 4.78757 78.7666 0 69.622 0C60.4773 0 52.9503 4.51362 48.3584 11.3623C47.5235 12.6016 45.9972 13.2147 44.5361 12.8886C36.2264 10.971 27.147 13.2539 20.6766 19.7243C14.4018 25.999 12.0798 34.7132 13.6713 42.8012C13.9714 44.2883 13.28 45.8015 11.9885 46.6103C4.78757 51.124 0 59.1467 0 68.2783C0 77.4099 4.51362 84.95 11.3623 89.5419C12.6016 90.3768 13.2147 91.9031 12.8886 93.3642C10.971 101.674 13.2539 110.753 19.7243 117.224C25.999 123.498 34.7132 125.821 42.8011 124.229C44.2883 123.929 45.8015 124.62 46.6103 125.912C51.137 133.113 59.1467 137.9 68.2914 137.9C77.436 137.9 84.9631 133.387 89.555 126.538C90.3899 125.299 91.9161 124.686 93.3772 125.012C101.687 126.929 110.766 124.646 117.237 118.176C123.511 111.901 125.834 103.187 124.242 95.0992C123.942 93.612 124.633 92.0988 125.925 91.29C133.126 86.7633 137.913 78.7536 137.913 69.6089L137.9 69.622ZM63.3864 98.3344C58.9771 97.4473 54.9201 95.621 51.4109 93.0772C48.6323 91.0552 46.219 88.5896 44.2622 85.7719C41.7706 82.1975 40.0225 78.0622 39.2398 73.5877C38.9398 71.8658 38.7702 70.0916 38.7702 68.2783C38.7702 66.6216 38.9006 64.991 39.1615 63.3994C39.9051 58.7684 41.6793 54.4766 44.2622 50.7848C46.2059 47.9801 48.6193 45.5276 51.3718 43.5186C55.1419 40.7661 59.5642 38.8485 64.3648 38.0527C66.0215 37.7788 67.7043 37.6222 69.4393 37.6222C71.1743 37.6222 72.8702 37.7788 74.5269 38.0527C79.4189 38.8746 83.9195 40.8444 87.7417 43.6882C90.4681 45.7233 92.8554 48.2018 94.773 51.0196C97.4342 54.9201 99.2084 59.4598 99.8345 64.3648C100.004 65.6563 100.095 66.9608 100.095 68.2914C100.095 70.4308 99.8737 72.505 99.4562 74.5139C98.4909 79.1841 96.4558 83.4759 93.625 87.1025C91.5248 89.7898 88.994 92.1249 86.1241 93.9903C82.4193 96.4037 78.1665 98.0343 73.5877 98.6605C72.231 98.8431 70.8352 98.9475 69.4263 98.9475C67.3521 98.9475 65.3432 98.7388 63.3864 98.3474V98.3344Z" fill="#231F20"/>
<path d="M421.84 45.9711C421.84 20.5853 395.137 0 362.185 0C329.233 0 302.542 20.5853 302.542 45.9711C302.542 53.4982 304.903 60.6078 309.078 66.8825C309.913 68.1479 309.913 69.7655 309.078 71.0309C304.903 77.3056 302.542 84.4021 302.542 91.9422C302.542 117.328 329.246 137.913 362.185 137.913C395.124 137.913 421.827 117.328 421.827 91.9422C421.827 84.4152 419.466 77.3056 415.291 71.0309C414.457 69.7655 414.457 68.1479 415.291 66.8825C419.466 60.6078 421.827 53.5112 421.827 45.9711H421.84ZM392.462 68.5653C392.462 85.2892 378.909 98.8431 362.185 98.8431C345.461 98.8431 331.907 85.2892 331.907 68.5653C331.907 51.8414 345.461 38.2875 362.185 38.2875C378.909 38.2875 392.462 51.8414 392.462 68.5653Z" fill="#231F20"/>
<path d="M166.312 4.7357H195.455C198.077 4.7357 200.19 6.86206 200.19 9.47109V41.797C200.19 49.885 210.417 53.3941 215.388 47.015L246.618 6.95338C247.714 5.5445 249.396 4.72266 251.17 4.72266H273.882C276.504 4.72266 278.618 6.84902 278.618 9.45805V27.7082C278.618 29.5476 278.017 31.3478 276.909 32.8219L254.067 63.2563C251.731 66.361 251.705 70.6137 253.988 73.7576L276.974 105.301C278.03 106.762 278.604 108.523 278.604 110.323V130.126C278.604 132.748 276.478 134.861 273.869 134.861H251.444C249.618 134.861 247.896 134 246.813 132.526L218.192 94.0298C212.452 86.294 200.164 90.3641 200.164 99.9914V130.113C200.164 132.735 198.038 134.848 195.429 134.848H166.286C163.664 134.848 161.55 132.722 161.55 130.113V9.47109C161.55 6.84902 163.677 4.7357 166.286 4.7357H166.312Z" fill="#231F20"/>
</svg>
